<svg version="1.2" xmlns="http://www.w3.org/2000/svg" viewBox="0 0 1440 900" width="1440" height="900">
	<title>doors open</title>
	<style>
		.s0 { fill: #0097a7 } 
		.s1 { fill: #7e5d3f } 
		.s2 { fill: #9b7b52 } 
	</style>
	<g id="doors open">
		<g id="&lt;Group&gt;">
			<g id="&lt;Group&gt;" style="opacity: .8">
				<path id="&lt;Compound Path&gt;" class="s0" d="m1423.8 710.1h-222.6v-518.5h222.6z"/>
			</g>
			<g id="&lt;Group&gt;">
				<path id="&lt;Compound Path&gt;" fill-rule="evenodd" class="s1" d="m1423.8 710.1h-222.6v-518.5h222.6zm-211.2-10.5h199.8v-497.6h-199.8z"/>
			</g>
			<g id="&lt;Group&gt;">
				<path id="&lt;Compound Path&gt;" fill-rule="evenodd" class="s2" d="m1434.3 180.2v539.6h-241.9v-539.6zm-16.2 16.6h-211.2v508.1h211.2z"/>
			</g>
			<g id="&lt;Group&gt;">
				<path id="&lt;Path&gt;" class="s1" d="m1418.1 455.2h-211.2v-10.4h211.2z"/>
			</g>
			<g id="&lt;Group&gt;">
				<path id="&lt;Path&gt;" class="s1" d="m1418.1 594.3h-211.2v-10.5h211.2z"/>
			</g>
			<g id="&lt;Group&gt;">
				<path id="&lt;Path&gt;" class="s1" d="m1418.1 327.8h-211.2v-10.4h211.2z"/>
			</g>
			<g id="&lt;Group&gt;">
				<path id="&lt;Compound Path&gt;" fill-rule="evenodd" class="s1" d="m1440 725h-253.3v-550h253.3zm-241.9-10.4h230.5v-529.2h-230.5z"/>
			</g>
			<g id="&lt;Group&gt;">
				<path id="&lt;Path&gt;" class="s1" d="m1318.2 704.9h-11.4v-508.1h11.4z"/>
			</g>
		</g>
		<g id="&lt;Group&gt;">
			<g id="&lt;Group&gt;" style="opacity: .8">
				<path id="&lt;Compound Path&gt;" class="s0" d="m237 710.1h-222.5v-518.5h222.5z"/>
			</g>
			<g id="&lt;Group&gt;">
				<path id="&lt;Compound Path&gt;" fill-rule="evenodd" class="s1" d="m237 710.1h-222.5v-518.5h222.5zm-211.2-10.5h199.9v-497.6h-199.9z"/>
			</g>
			<g id="&lt;Group&gt;">
				<path id="&lt;Compound Path&gt;" fill-rule="evenodd" class="s2" d="m247.6 180.2v539.6h-241.9v-539.6zm-16.3 16.6h-211.1v508.1h211.1z"/>
			</g>
			<g id="&lt;Group&gt;">
				<path id="&lt;Path&gt;" class="s1" d="m231.3 455.2h-211.1v-10.4h211.1z"/>
			</g>
			<g id="&lt;Group&gt;">
				<path id="&lt;Path&gt;" class="s1" d="m231.3 594.3h-211.1v-10.5h211.1z"/>
			</g>
			<g id="&lt;Group&gt;">
				<path id="&lt;Path&gt;" class="s1" d="m231.3 327.8h-211.1v-10.4h211.1z"/>
			</g>
			<g id="&lt;Group&gt;">
				<path id="&lt;Compound Path&gt;" fill-rule="evenodd" class="s1" d="m253.3 725h-253.3v-550h253.3zm-241.9-10.4h230.5v-529.2h-230.5z"/>
			</g>
			<g id="&lt;Group&gt;">
				<path id="&lt;Path&gt;" class="s1" d="m131.4 704.9h-11.3v-508.1h11.3z"/>
			</g>
		</g>
	</g>
</svg>